<svg xmlns="http://www.w3.org/2000/svg" width="260" height="260" viewBox="0 0 260 260">
  <rect width="260" height="260" fill="#ffffff"/>
  <g fill="#050505">
    <rect x="20" y="20" width="60" height="60"/>
    <rect x="35" y="35" width="30" height="30" fill="#ffffff"/>
    <rect x="45" y="45" width="10" height="10" fill="#050505"/>
    <rect x="180" y="20" width="60" height="60"/>
    <rect x="195" y="35" width="30" height="30" fill="#ffffff"/>
    <rect x="205" y="45" width="10" height="10" fill="#050505"/>
    <rect x="20" y="180" width="60" height="60"/>
    <rect x="35" y="195" width="30" height="30" fill="#ffffff"/>
    <rect x="45" y="205" width="10" height="10" fill="#050505"/>
    <rect x="100" y="100" width="14" height="14"/>
    <rect x="120" y="100" width="14" height="14"/>
    <rect x="140" y="120" width="14" height="14"/>
    <rect x="100" y="140" width="14" height="14"/>
    <rect x="160" y="140" width="14" height="14"/>
    <rect x="120" y="160" width="14" height="14"/>
    <rect x="180" y="180" width="14" height="14"/>
    <rect x="200" y="200" width="14" height="14"/>
    <rect x="220" y="180" width="14" height="14"/>
    <rect x="160" y="200" width="14" height="14"/>
  </g>
</svg>
