<?xml version="1.0" encoding="UTF-8"?>
<svg id="Layer_2" data-name="Layer 2" xmlns="http://www.w3.org/2000/svg" viewBox="0 0 1802.52 489.55">
  <defs>
    <style>
      .cls-1 {
        fill: #c8243f;
      }

      .cls-2 {
        fill: #193281;
      }

      .cls-3 {
        fill: #0059a3;
      }

      .cls-4 {
        fill: #0061a5;
      }

      .cls-5 {
        fill: #064b96;
      }

      .cls-6 {
        fill: #0072a8;
      }

      .cls-7 {
        fill: #00a1ad;
      }

      .cls-8 {
        fill: #006da7;
      }

      .cls-9 {
        fill: #008fac;
      }

      .cls-10 {
        fill: #0079a9;
      }

      .cls-11 {
        fill: #0073a8;
      }

      .cls-12 {
        fill: #008bac;
      }

      .cls-13 {
        fill: #005aa3;
      }

      .cls-14 {
        fill: #00a5ac;
      }

      .cls-15 {
        fill: #1a3280;
      }

      .cls-16 {
        fill: #1a3281;
      }

      .cls-17 {
        fill: #0090ac;
      }

      .cls-18 {
        fill: #0085ab;
      }

      .cls-19 {
        fill: #034f9a;
      }

      .cls-20 {
        fill: #007aa9;
      }

      .cls-21 {
        fill: #008eac;
      }

      .cls-22 {
        fill: #00a3ac;
      }
    </style>
  </defs>
  <g id="Layer_1-2" data-name="Layer 1">
    <g>
      <path class="cls-15" d="M689,349.59h-84.95c.44-9.12.58-18.31,1.01-27.44,1.77-37.64,5.23-77.1,4.03-114.84-.29-9.03-.51-25.23-2.47-33.47-2.87-12.14-17.28-7.67-22.42.72-4.42,7.21-5.77,25.02-6.18,33.75-1.56,32.72-1.33,67.91-2,100.82-.28,13.47.29,27,.04,40.47h-91.95c2.67-23.03,2.26-46.25,2.96-69.41,1-33.14,2.44-66.61,3.08-99.74.42-21.73-1.61-45.62-.08-66.96.77-10.7,1.26-15.07,12.66-16.31,9.61-1.04,20.85-.25,30.85-1.13,29.55-2.61,80.02-15.07,106.67-10.69,67.26,11.04,56.21,79.51,54.71,130.94-1.29,44.43-3.16,88.92-5.96,133.3Z"/>
      <path class="cls-15" d="M400.15,87.07l67.01,9.45c3.74.75,8.87,4.36,9.74,8.24,1.31,5.77.39,20.98.25,27.78-.88,43.76-4.16,87.85-5.08,131.68-.59,28.44-.1,56.96-.95,85.39-28.47.44-57.03-.59-85.5-.05-25.82.5-51.92,6.31-76.94-2.94s-38.57-28.69-40.45-54.43c-2.97-40.78.49-81.98,2.03-122.72-.2-36.77,2.58-73.49,1.96-110.34l89.51,19.9-.53,40.53c-2.09,21.83-1.57,43.89-2,65.88-.5,25.27-3.82,59.21-1.04,83.81,1.16,10.26,12.64,22.65,23.34,16.32,17.53-10.37,14.05-42.15,14.6-59.28.94-29.5,2.32-59.27,3.08-88.76.44-16.82-.95-33.73.96-50.45Z"/>
      <path class="cls-2" d="M1104.77,64.12l2.1.22c3.04,16.18,7,31.96,11.86,47.33,16.24-.25,32.58-2.01,49.02-5.26,1.04,1.36,2.35,1.95,3.98,1.64l2.39-2.18c18.46-1.43,37.36-1.39,56.14-.24.92.06,1.82.45,2.76.87s1.82.96,2.68,1.55c7.25,14.98,10.36,25.6,13.99,41.92.29,2.35-1.34,3.43-4.9,3.23-26.9-1.79-54.24-1.17-82,1.85l-3.04-1.09-2.49-.37c-28.38-38.64-35.69,51.33-36.38,66.71-.79,17.7-2.24,69.38,17.49,77.23,19.09,7.6,25.67-25.26,27.3-37.65,2.52-19.25,2.81-38.86,2.17-58.16l1.9-1.85c.79-.68,1.59-1.33,2.47-1.87s1.71-1.02,2.61-1.21c23.88-5.2,50.82-10.08,75.24-9.93.93,0,1.87.32,2.82.66s1.9.84,2.81,1.36c1.74,24.18,1.07,49-3,72.87-2.4,1.87-4.89,3.69-7.72,4.85-19.24,7.88-38.25,15.86-57.36,24.05-2.81,1.2-5.87,1.66-8.88,2.05-.83,1.56-1.96,2.86-3.4,3.88l-38.06,19.79c-5.72,2.44-9.57,6.06-11.55,10.87l2.13,22.82-2.09,1.53c-.26,2.24-3.3,7.67-3.89,11.58-1.91,12.57-.67,28.41-3.34,40.58-1.37,6.24-6.37,8.88-12.37,9.61-19.66,2.38-41.01,1.54-60.82,2.15-3.06.09-16.73.87-17.46-1.66,1.9-21.88,4.57-43.84,5.91-65.77s1.41-43.25,1.97-64.91c1.67-65.26,3.73-131.54-4.77-196.33.72-3.38,2.9-6.58,6.34-7.73,22.43-5.17,45.16-9.25,67.44-15Z"/>
      <path class="cls-15" d="M792.94,349.59h-89.95c1.66-12.43.59-24.96.96-37.47,1.66-56.68,6.34-114.9,5.08-171.69-.48-21.72-3.13-43.75-2.8-65.6,1.86-8,9.11-9.81,15.99-11.98,13.25-4.17,31.3-7.17,45.19-7.77,7.01-.3,25.33-1.28,29.55,4.52,3.18,4.37.17,19.93-.06,25.93-1.36,35.86-3.34,72.01-4,107.8-.96,52.05.8,104.21.04,156.26Z"/>
      <path class="cls-15" d="M1802.4,235.8c-.06.79-.31,1.98-.87,2.02-15.45,1.08-35.25,2.12-50.58,1.55-.3-.01-.58-.57-.85-1.28-4.27.33-8.49.23-12.67-.3-2.81,3.06-15.34,3.33-16.99-1l-1.66-5.13c.58-20.71-.86-44.06-8.93-63.02-2.72-6.4-9.18-19.54-17.95-14.72-18.41,10.12-21.49,55.82-21.5,75.18l-1.93,1.71c-2.29.77-4.64,1.12-7.06,1.02-23.69-3.59-46.85-9.8-69.89-16.22-1.08-.3-2.08-.92-3.1-1.56s-1.98-1.41-2.91-2.2c4.84-62.61,32.46-124.41,103.45-128.75,86.37-5.29,115.68,81.5,113.43,152.71Z"/>
      <path class="cls-15" d="M1568.52,205.86c-1.48.01-2.95-.02-4.41-.19s-2.86-.35-4.18-.81c-26.43-9.19-54.37-19.7-78.32-32.5l-1.03-3.44c.22-54.9-.55-109.84.46-164.74,19.64-5.93,43.03-3.46,62.5,2.54,10.52,3.24,27.46,8.22,29.01,20.93,2.27,18.54-1.54,45.57-2.06,64.86-1.03,37.72-2.28,75.54-1.96,113.33Z"/>
      <path class="cls-15" d="M1466.58,162.94l-1.54,1.45c-29.55-15.21-59.1-30.47-88.63-45.78l-.79-2.59c.41-29.74-3.85-64.59-1.05-93.38.97-10,8.02-11.71,16.27-14.69,16.29-5.89,35.98-8.74,53.28-7.76,3.28.19,19.71,2.19,21.47,3.51,1.01.77,1.04,1.83,1.03,2.96-.07,52.09-.08,104.19-.05,156.27Z"/>
      <path class="cls-4" d="M1357.64,240.79c-.21,18.61.04,37.29,0,55.9l-5.4,3.56c-30.07,9.97-59.14,22.34-87.22,37.13l-3.34.24c-1.2-25.06,7.51-56.09,7-81.85.76-.72,1.55-1.41,2.41-1.98s1.68-1.09,2.58-1.33c25.12-6.6,52.24-12.39,78.21-13.47.93-.04,1.89.24,2.87.55s1.95.76,2.89,1.25Z"/>
      <path class="cls-15" d="M1466.58,289.7c-.03,19.95.02,39.94,0,59.89h-91.45c-3.57,0-7.85-6.8-7.5-10.48.68-15.14,1.43-30.29,2-45.42.7-.72,1.43-1.4,2.24-1.96,6.51-4.53,32.57-6.2,41.94-6.64,10.31-.48,42.87-.95,50.32,2.96.87.46,1.67,1.03,2.45,1.65Z"/>
      <path class="cls-15" d="M1673.47,271.74l2.24.78c4.5,23.68,23.06,39.62,34.4,9.65l2.34-.44c1.69-.56,3.45-.91,5.24-.71,6.13.69,35.38,5.3,38.47,7.05.81.46,1.54,1.03,2.26,1.64,3.04-1,6.28-1,9.73,0l16.28,1.04c2.38.15,4.31.35,4.97,2.95-5.15,11.29-9.9,19.46-17.99,28.95-1.09.4-2.19.76-3.32.97-6.2,1.18-38.33-4.72-43.86-7.95-.99-.58-1.9-1.27-2.79-2.01-15.87-.39-33.11-5.25-46.97-12.98-1.81-.03-3.62-.1-5.4-.33s-3.55-.44-5.19-1c-23.32-7.85-46.08-16.63-68.63-26.48-1.59-.69-3.04-1.71-4.51-2.75s-2.86-2.19-4.22-3.38c-.93-7.85-1.76-17.09-2-24.95l1.29-1.67c28.57,9.62,57.16,19.24,85.77,28.87l1.89,2.74Z"/>
      <path class="cls-15" d="M1358.64,198.87c-.29,14-.84,27.9-1,41.92-30.28.6-59.81,7.62-88.95,14.97.05-7.66,2-17.22,2-24.46v-22.96c0-6.02.97-13.05,1-19.46.89-.53,1.79-1.02,2.75-1.37s1.85-.66,2.76-.67c24.54-.29,52.21,4.53,76.39,9.15.89.17,1.73.63,2.58,1.11s1.68,1.12,2.47,1.77Z"/>
      <path class="cls-1" d="M1324.66,487.34h-15.99v-50.41c0-1.36-2.84-7.69-3.98-9-4.75-5.46-15.85-4.27-20.93.08-.45.38-3.07,3.67-3.07,3.92v55.4h-15.99v-51.41c0-.27-1.48-4.59-1.79-5.2-3.61-7.19-13.32-7.87-19.9-4.48-1.61.83-6.3,5.26-6.3,6.69v54.4h-15.99v-74.86h14.99c.4,0-.7,7.03.49,7.98,10.74-13.08,32.9-14.72,40.98,1.98,9.97-14.55,36.97-17.57,44.87.13.41.91,2.61,6.99,2.61,7.38v57.4Z"/>
      <path class="cls-1" d="M1438.59,412.48c.35.35-.26,6.53,0,7.99,9.11-9.59,22.1-13.48,34.31-6.82l8.15,8.83c6.66-13.07,29.9-16.3,39.89-5.9,2.04,2.12,6.59,11.8,6.59,14.38v56.4h-15.99v-50.41c0-1.29-2.85-7.79-3.98-9-6.2-6.71-24.01-2.79-24.01,5.01v54.4h-15.99v-51.41c0-.68-2.67-6.54-3.45-7.54-3.54-4.54-11.08-4.88-16.27-3.18-1.67.55-8.26,5.8-8.26,6.72v55.4h-15.99v-74.86c2.23.39,14.46-.53,14.99,0Z"/>
      <path class="cls-15" d="M1572.52,321.65c.09,5.95,1.17,20.13-1.98,24.48-.59.81-3.92,3.47-4.52,3.47h-86.45c.73-1.5,1.02-2.73,1.06-4.43.44-17.42.03-35.04-.06-52.46.95-.37,1.91-.7,2.9-.89s1.9-.33,2.79-.2c27.76,4,59.93,15.31,85.18,26.55l1.09,3.49Z"/>
      <path class="cls-6" d="M1372.63,233.81c2.22,1.29,3,4.26.91,5.71,29.2-1.45,59.91,4.95,88.15,12.85.89.25,1.7.8,2.53,1.37s1.61,1.29,2.35,2.02c-.01,11.3.02,22.64,0,33.94-32.18-4.15-65.44-4.53-96.95,3.99.18-4.82,1-11.43,1-15.47v-18.97c0-.37.99-1.65,1.04-2.96.26-7.31-1.11-15.55.96-22.5Z"/>
      <path class="cls-1" d="M1323.45,15.5c15.75-1.53,42.43-1.93,38.94,20.93-4.31,28.23-61.9,39.69-84.25,31.71-8.9-3.18-14.88-10.45-13.21-20.26,3.03-17.8,42.79-30.86,58.52-32.38Z"/>
      <path class="cls-13" d="M1183.73,354.59l-2.07-.76s-1.59-19.71-4.77-59.13l1.84-2c24.01-11.68,48.7-22.22,73.96-30.94-6.74,39.5-26.48,82.53-68.96,92.83Z"/>
      <path class="cls-3" d="M1249.7,149.96c3,13.48,5,24.99,6,38.93-29.06-.53-57.67,5.18-85.95,10.98l-2.15-2.34c-1.07-13.77-2.92-27.78-8.55-40.51l.71-3.06c24.46-1.91,48.88-4.91,73.5-4.03,4.99.18,11.5,2.78,16.45.04Z"/>
      <path class="cls-15" d="M1359.64,141.97c.66,8.99.12,19.78,0,28.95-3.09.16-6.23.22-9.27-.43-23.72-5.13-47.12-9.81-70.97-14.27-3.07-.57-5.92-1.9-8.71-3.26-.54-13.97-.99-27.98-2-41.92,2.61-.44,5.31-.85,7.95-.39,25.04,4.37,50.58,13.01,73.84,21.26,7.4,1.61,10.46,4.96,9.16,10.07Z"/>
      <path class="cls-16" d="M1357.64,296.69c-.04,17.62.03,35.28,0,52.9h-88.45c-.64,0-4.62-2.69-5.36-3.63-2.07-2.63-1.99-5.28-2.13-8.35,30.81-16.12,62.08-32.03,95.95-40.93Z"/>
      <path class="cls-5" d="M1152.75,52.14c2.61-.5,5.22-.52,7.83-.07,4.98,11.78,7.75,24.91,9.93,37.56,1.11,6.47,2.25,13.94,1.23,18.41-14.99,1.14-31.36,5.29-46.48,5.97-8.54.38-8.69-.01-11.02-7.94l-9.46-41.96c15.63-4.03,31.13-11.77,47.97-11.98Z"/>
      <path class="cls-4" d="M1293.67,81.08c7.12,1.17,13.64,3.22,20.59,5.95,15.09,5.91,29.93,12.49,44.64,19.2.21-1.59.92-2.24,2.74-2.19-.1,3.78-.95,7.12-1.04,10.44-.25,9,1.1,18.82-.96,27.49-.08-1.07.26-2.25-.16-3.29-.94-2.38-20.14-8.59-24.05-9.96-21.81-7.6-44.1-13.1-66.74-17.69-.63-8.74-2.87-18.9-3.05-27.51-.08-4.13,1.4-5.51,5.53-5.53,4.23-.02,18.38,1.94,22.5,3.09Z"/>
      <path class="cls-22" d="M1668.47,230.81l2.15,2.81c.71,11.66,1.9,23.35,4.18,34.82l-1.33,3.3-88.95-29.95c-.32-10.22.22-19.86,1-29.95,27.27,7.69,54.74,15.31,82.96,18.97Z"/>
      <path class="cls-4" d="M1359.64,170.92c-.12,9.35-.81,18.6-1,27.95-28.75-4.81-57.58-10.64-86.95-9.98.06-12.04-.53-23.93-1-35.93,30.04,4.13,59.79,9.84,88.95,17.97Z"/>
      <path class="cls-1" d="M1680.46,487.34h-16.99v-52.4c0-2.45-4.75-8.72-7.25-9.73-4.09-1.64-10.52-.97-14.43,1.04-1.61.83-6.3,5.26-6.3,6.69v54.4h-15.99v-74.86h14.99c.4,0-.3,6.88,0,7.99,14.26-15.15,39.81-14.17,44.73,8.72.23,1.07,1.23,7.17,1.23,7.75v50.41Z"/>
      <path class="cls-13" d="M1235.7,108.04c-14.73-1.24-30.66-1.61-45.52-1.05-5.77.22-12.7.61-18.44,1.05-3.42.46-1.55-1.31-1.51-3.01.26-9.5-6.06-37.89-9.45-47.43-.64-1.79-1.51-3.52-2.2-5.29-1.9-.41-3.9-.19-5.83-.17,20.14-4.57,40.64,4.88,55.5,17.94,12.62,11.09,20.26,23.09,27.46,37.96Z"/>
      <path class="cls-19" d="M1183.73,354.59c-10.41,2.53-16.63,2.44-27.22.73-10.07-1.63-20.92-7.69-30.75-3.72.63-5.58-2.04-18.2-2.03-24.48.01-7,14.7-13.51,20.34-16.61,10.98-6.05,23.37-12.3,34.65-17.8l5,61.89Z"/>
      <path class="cls-15" d="M1466.58,234.8c0,6.97,0,13.99,0,20.96-30.58-8.43-62-15.38-93.95-14.97-.05-2.32.07-4.67,0-6.99-.3-10.54.7-20.52,1-30.94,1.71-.07,3.41-.09,5.11.03s3.36.25,4.92.71c26.75,7.85,53.47,16.68,78.84,28.13l4.07,3.06Z"/>
      <path class="cls-10" d="M1802.4,235.8c-.69,21.89-3.94,38.04-12.99,57.89-6.7-1.8-14.58-1.26-21.48-2-3.09-.33-6.76-1.63-9.5-1.99.47-1.22-.19-2.63-1.99-4.26-3.9-12.61-7.98-26.85-9.8-39.97-.24-1.75-.04-3,.34-4.71-6.25,1.13-9.43.14-9.53-2.96l64.97-2Z"/>
      <path class="cls-8" d="M1466.58,162.94c0,8.64,0,17.32,0,25.95l-1.51,1.48-87.4-43.06c.6,3.09-.08,4.97-2.04,5.64-1.66-1.04-1-3.79-1.02-5.48-.13-10.58.87-20.9,1.02-31.46l90.95,46.91Z"/>
      <path class="cls-11" d="M1466.58,208.85c0,8.64,0,17.32,0,25.95-30.41-12.21-61.29-23.3-92.95-31.94.26-9.03.67-17.98,1-26.95l1.32-1.65,88.81,31.82c1.11.3,1.71,1.22,1.82,2.77Z"/>
      <path class="cls-18" d="M1568.52,205.86c.08,9.17,1.04,19.29,1,28.95l-1.44,1.55c-28.85-12.63-57.72-25.26-86.6-37.9l-.92-2.58c-.37-9.12-.04-17.93,0-26.95,2.21,2.77,6.46,4.35,9.64,5.85,25.38,11.94,51.97,21.51,78.32,31.08Z"/>
      <path class="cls-12" d="M1571.52,298.69c.23,7.69.88,15.28,1,22.96-1-1.39-1.81-2.3-3.42-3.07-11.74-5.66-30.95-11.3-43.79-15.16-14.65-4.4-29.59-8.45-44.74-10.71-.05-10.71-.48-21.13,0-31.94l1.41-1.58c29.53,12.28,59.05,24.61,88.56,36.99l.98,2.51Z"/>
      <path class="cls-15" d="M1466.58,188.89c0,6.64,0,13.32,0,19.96l-91.95-32.94c.3-8.12.17-14.84,1-22.96.26-2.59-.2-5.37,0-7.98l2.26.23,88.69,43.69Z"/>
      <path class="cls-9" d="M1480.57,198.87l2.07,2.37.06,13.18,84.82,41.37c-.08-1.2.8-1.69,2.01-2.02,1.66,1.04,1,3.79,1.02,5.48.1,8.15-.25,16.34-.02,24.47l-1.48,1.51-86.57-41.05.14,12.05-2.04,1.54v-58.89Z"/>
      <path class="cls-1" d="M1793.4,413.48v14.97c-6.45-3.52-23.46-8.57-28.56-2.07-8.26,10.52,16.31,17.62,22.48,21.62,9.68,6.27,13.47,15.85,9.13,26.92-6.92,17.65-36.24,16.12-51.02,11.43v-15.97c7.11,6.78,42.39,10.78,35.22-5.73-4.48-10.33-31.43-10.66-33.96-28.96-3.56-25.83,28.66-28.96,46.71-22.2Z"/>
      <path class="cls-15" d="M1674.47,327.63c1.16-.11,2.31-.17,3.45-.1,5.09.3,36.79,11.78,40.93,14.8.93.68,1.77,1.46,2.6,2.28,2.95-2.07,17.16,2.7,11.99,5.99-12.42,4.84-22.8,6.16-35.98,6.99l-8.54-1.71c-26.61-12.15-53.21-24.31-79.79-36.47l-5.62-4.75c-4.72-7.05-7.07-12.16-9.99-19.96,4.15.75,8.31,1.61,12.24,3.17,19.28,7.65,38.62,15.47,57.78,23.42,3.91,1.62,7.46,3.97,10.94,6.35Z"/>
      <path class="cls-14" d="M1674.47,300.68c3.89,1.8.4,4.59-2.95,4.68-1.91,8.62-.39,15.38,4.57,20.29l-1.62,1.97c-27.23-10.44-54.3-21.09-80.96-32.94-3.59-9.58-5.76-17.56-7-27.95,28.52,13.12,57.99,24.48,87.95,33.94Z"/>
      <path class="cls-1" d="M1715.45,394.51v16.47c0,.11,1.39,1.5,1.5,1.5h20.49v11.98h-20.49c-.11,0-1.5,1.39-1.5,1.5v39.93c0,.31,1.75,5.26,2.12,5.87,3.88,6.57,10.58,2.33,15.87.62v13.97c-10.38,4.02-24.4,5.51-30.83-5.64-.81-1.41-3.15-8.62-3.15-9.83v-46.42c-1.59-.27-8.63.37-9,0-.42-.42-.42-11.56,0-11.99s8.56.45,9.01.01c.57-.57-1.4-11.16,3.04-15.43,3.21-3.09,8.84-2.62,12.95-2.54Z"/>
      <path class="cls-15" d="M1569.52,234.8c-.03,6.3.16,12.67,0,18.97-.04,1.48.48,3.91-.49,4.98l-88.3-43.07c-.52-5.57.11-11.24-.16-16.81-.05-.99.04-2,0-2.99l88.95,38.93Z"/>
      <path class="cls-15" d="M1570.52,283.71c.14,4.82.85,9.83,1,14.97l-90.95-37.93c.04-.99-.05-2,0-2.99.25-4.56-.61-10.21,0-14.49.2-1.38-.56-1.71,1.51-1.5l88.44,41.94Z"/>
      <path class="cls-16" d="M1361.64,104.04l-1.49,4.98c-21-9.54-42.46-19.44-64.51-26.44-.93-.3-1.68-1.42-1.96-1.5,14.19-.34,27.79-3.41,40.96-8.5,4.68-1.81,22.13-11.44,25.36-10.39,4.39,1.43,1.65,11.35,1.6,14.35-.14,9.15.27,18.35.04,27.49Z"/>
      <path class="cls-20" d="M1771.42,322.64c-10.32,12.1-23.03,22.12-37.98,27.95.58-2.7-1.38-1.91-2.97-2.48-3-1.06-6.1-2.53-9.03-3.51-2.37-1.6-3.52-2.87-4.5-5.54s-.96-7.18-.94-10.01c.03-4.62.14-15.15,5.44-15.39,16.45,3.8,33.15,7.23,49.97,8.98Z"/>
      <path class="cls-7" d="M1697.46,357.58c-37.23,2.34-72.68-11.12-93.95-42.92l93.95,42.92Z"/>
      <path class="cls-15" d="M244.25,113.51C212.41,28.81,124.61,13.75,43.88,11.17c-9.23-.3-27.43-1.22-35.79.28C2.8,12.4.77,15.69.32,20.65c-1.09,11.89.94,24.21,1.09,35.94,1.07,87.24,1.03,174.39,0,261.6-.11,9.61-5.87,29.27,7.52,31.34,7.36,1.14,22.56.89,30.88,1.1,88.07,2.3,196.11-3.79,211.28-111.48,5.33-37.82,6.67-89.73-6.84-125.65ZM156.16,230.18c-2.09,15.2-6.09,32.33-18.95,41.96-8.23,6.17-27.67,12.39-28.94-2.87-3.5-42.23,3.58-88.22,1-130.84,2.06-6.91-1.8-27.21,6.75-29.19,13.65-3.16,28.07,9.32,33.81,20.71,10.24,20.32,9.51,77.12,6.33,100.23Z"/>
      <path class="cls-15" d="M894.04,85.73c-79.63,17.28-98.9,124.33-83.82,192.2,17.86,80.4,120.31,107.51,177.26,51.35,74.17-73.14,37.19-271.9-93.44-243.55ZM936.13,276.49c-3.87,12.47-12.23,32.88-28.27,20.73-17.06-12.93-18.39-69.71-16.95-89.85,1-13.95,8.74-53.89,25.74-56.21,15.03-2.06,21.92,28.62,23.9,39.55,5.03,27.69,3.95,58.8-4.42,85.79Z"/>
      <path class="cls-17" d="M1737.43,237.8c.15.01,1.13.94,2.42,1.04,3.47.27,7.09-.27,10.57-.04.31,2-1.69,2.62-2.01,4.54-.33,2.02,7.67,36.28,9.03,39.85,1.05,2.77,7.53,7.14.98,6.51-15.44-2.05-30.92-3.86-45.98-7.99,4.39-12.42,6.93-31.69,8-44.92,5.58,1.65,11.33.61,16.99,1Z"/>
      <path class="cls-21" d="M1721.44,313.66c-3.92,5.86-3.74,15.43-3.06,22.52.37,3.89,2.29,4.99,3.06,8.42-16.22-5.43-31.02-10.85-46.97-16.97.04-3.14-4.1-4.34-4.79-6.69-.46-1.54-.66-16.51-.1-17.16.69-.79,5.76.27,4.89-3.1,15.5,4.89,31.12,9.32,46.97,12.98Z"/>
      <path class="cls-1" d="M1369.39,410.74c-40.68,5.5-42.65,73.73-1.15,78.49,53.25,6.11,54.81-85.75,1.15-78.49ZM1369.36,476.13c-18.11-3.75-20.23-48.77,2.01-52.43,27.6-4.54,28.01,58.65-2.01,52.43Z"/>
      <path class="cls-1" d="M1560.03,450.41h44.48v-14.47c0-8.65-9.84-20.92-18.21-23.74-50.72-17.1-66.04,82.66-4.3,77.13,3.16-.28,16.66-3.55,18.03-5.92.24-.42-.57-7.71-.58-9.61-.01-1.71,1.96-5.86-.91-4.92-2.76.9-6.33,3.56-9.48,4.54-10.77,3.36-22.8,2.19-27.74-9.34-.76-1.78-4.46-13.67-1.3-13.67ZM1588.51,439.43h-28.98c2.43-21.43,29.61-23.54,28.98,0Z"/>
    </g>
  </g>
</svg>