<?xml version="1.0" encoding="UTF-8"?>
<svg id="Layer_2" data-name="Layer 2" xmlns="http://www.w3.org/2000/svg" viewBox="0 0 850.13 242.28">
  <g id="Layer_1-2" data-name="Layer 1">
    <g>
      <path d="M826.1,0c1.88.46,3.8.79,5.64,1.43,7.9,2.77,14.53,9.51,17.03,17.5.64,2.04.86,4.16,1.32,6.24-.09,1.48.12,3.09,0,4.56-2.32,28.24-41.76,34.98-53.92,9.88-7.95-16.42,2.6-37.75,21.04-39.61h8.88Z"/>
      <path d="M137.5,95.9c.16.13.34.02.5-.15.49-.52,1.03-1.44,1.54-2.01,15.79-17.67,37.04-26.16,60.91-22.26,31.64,5.18,46.83,33.91,49.82,63.38,1.1,33.92.17,67.95.49,101.91,0,3.08-2.22,4.9-5.16,5.15-12.82-.74-26.67.95-39.37,0-3.45-.26-5.13-1.98-5.4-5.4l.02-92.09c-.95-15.75-9.7-27.35-26.53-26.26-14.35.93-22.48,13.91-23.15,27.21-1.03,20.39.8,41.64,0,62.12-.07,9.17.95,19.43.26,28.53-.25,3.36-1.57,5.57-5.16,5.87-12.88-.84-27.13,1.09-39.85,0-3.54-.3-4.89-2.53-5.16-5.87l.02-92.09c-2.19-35.24-49.63-34.33-50.17,1.2l.02,91.85c-.29,3.13-2.41,4.64-5.4,4.91-13.03-.85-27.46,1.1-40.33,0-3.58-.31-5.16-2.42-5.4-5.87V78.27c.31-4.5,2.25-5.81,6.6-6.11,6.66-.46,17.11-.46,23.77,0,10.89.75,11.04,13.25,13.28,21.5.06.23-.1.77.39.56.37-.16,4.24-5.36,5.04-6.23,22.49-24.67,66.54-23.27,86.21,4.24.44.61,2.04,3.53,2.21,3.67Z"/>
      <path d="M656.23,95.18l2.75-3.36c19.81-22.15,54.19-27.71,80.09-12.9,22.48,12.86,31.61,34.37,32.79,59.54,1.52,32.31-.62,65.41.26,97.82-.26,3.28-1.74,5.34-5.16,5.63-12.72-.83-26.8,1.08-39.37,0-3.37-.29-5.11-2.02-5.4-5.39l.02-90.17c-2.26-38.78-56.49-36.66-59.04,0l.02,88.25c-.37,4.05-4.62,6.67-8.29,7.3h-37.9c-3.98-.57-4.94-2.93-5.17-6.58V78.99c.09-3.21,1.47-5.99,4.93-6.34,8.84.57,18.63-.76,27.36-.01,3.52.3,6.54,3.05,8.08,6.08l4.04,16.47Z"/>
      <path d="M347.14,70.32c28.4-1.39,56.03,11.52,72.75,34.33-8.03,10.84-13.71,23.4-16,36.76-3.98,23.18,1.87,47.25,15.88,65.99.11.17.14.34.09.53-.12.45-4.22,5.2-4.89,5.93-39.44,43.15-109.13,35.33-138.13-15.19-31.86-55.5,6.76-125.25,70.29-128.36ZM347.86,114.68c-27.82,2.17-45.69,32.24-34.54,57.87,12.75,29.33,52.79,34.05,71.74,8.07,21.07-28.9-1.84-68.7-37.19-65.94Z"/>
      <path d="M799.88,72.71l43.62-.06c2.07.4,3.72,1.8,4.33,3.83l.12,161.02c-.12,1.89-1.29,3.51-3.13,4.07-14.83.82-29.85.13-44.75.35-3.11-.31-4.62-2.63-4.69-5.62V78.03c.25-2.88,1.77-4.53,4.51-5.33Z"/>
      <path d="M497.39,240.96c-.12-.56.07-.39.31-.54,3.23-2.08,7.45-3.67,10.95-5.84,61.54-38.13,58.12-126.92-4.38-162.22-.38-.21-3.05-1.23-1.72-1.4,18.31-2.29,39,2.93,54.57,12.61,51.79,32.19,53.66,106.93,4.42,142.47-18.58,13.41-41.43,18.4-64.14,14.91Z"/>
    </g>
  </g>
</svg>