<?xml version="1.0" encoding="UTF-8"?>
<svg id="Layer_2" data-name="Layer 2" xmlns="http://www.w3.org/2000/svg" viewBox="0 0 1107.6 577.26">
  <g id="Layer_1-2" data-name="Layer 1">
    <g>
      <path d="M0,8.01c28.9,1.39,60.65-4.4,88.67,4.19,33.15,10.16,32.74,38.66,33.69,68.04,1.3,40.53-.16,80.9-.92,121.39-.26,13.67,1.17,31.72-2.56,44.46-4.83,16.53-17.74,26.45-33.94,30.84,15.64,3.05,27.06,12.51,32.52,27.47,7.05,19.33,4.2,39.78,3.94,59.83-.91,68.45,1.54,136.91.53,205.4l-.99,3.57h-34.55v-263.17c0-4.39-6.55-15.83-9.82-18.97-1.82-1.75-10.32-6.22-12.5-6.22h-29.99v288.36H0V8.01ZM34.07,270.46h24.23c2.9,0,13.55-3.7,16.04-5.55,12.05-8.93,11.83-26.36,12.51-39.79,2.63-51.65-2.23-103.29-1.46-155,.2-13.61,3.39-27.92-6.71-39.31-2.13-2.41-12.35-8.41-15.1-8.41h-29.51v248.06Z"/>
      <path d="M782.71,577.06c-5.12.3-11.66.24-16.8,0-24.66-1.16-50.06-11.68-52.81-39.56l.27-147.07c.27-.29,1.3-1.45,1.43-1.45h31.19c.05,0,.72.67.72.72v149.22c0,1.08,1.9,8.15,2.38,9.61,4,12.09,15.08,16.27,27.12,15.57,22.44-1.3,23.32-22.39,24.26-40.04,1.34-25.27-.61-50.62-1-75.81-.42-27.11,2.24-53.27-3.67-79.82-16.66-74.81-75.5-135.8-82.69-213.84-2.56-27.74-1.9-58.92-.97-86.85,1.12-33.74,2.56-58.92,41.59-65.41,33.22-5.52,78.53.7,80.78,42.39l.03,124.77c.1.49-.35,1.65-.74,1.65h-32.15c-.13,0-1.16-1.16-1.43-1.45l-.23-130.27c-2.52-19.73-11.37-27.74-31.47-26.15-23.11,1.83-21.7,32.91-22.28,49.7-.8,23.19-1.37,48.37-.04,71.49,5,86.92,73.64,152.16,86.32,237.08,2.65,17.76,2.54,35.78,2.94,53.68.72,32.69,1.82,68.25-.94,100.73-2.82,33.18-18.41,49.15-51.82,51.1Z"/>
      <path d="M961.71.34c18.91,1.21,41.29,10.84,47.73,30.25.35,1.06,1.7,5.72,1.7,6.46v134.1h-32.87c-.05,0-.72-.67-.72-.72V36.56c0-3.18-4.55-14.09-6.73-16.78-8.2-10.11-29.37-9.14-38.16-.27-9.13,9.2-8.43,32.62-8.84,44.9-1.23,37.42-3.23,80.89,8.01,116.7,18.53,59,60.73,109.97,73.88,170.83,11.54,53.39,4.4,112.71,4.93,167.32.15,15.14,1.24,26.01-8.42,39.04-15.1,20.36-54.02,21.36-76.59,16.2-35.7-8.16-35.29-36.79-35.93-67.24-.81-38.85.67-77.78,0-116.64-.1-.49.35-1.65.74-1.65h32.15c.13,0,1.16,1.16,1.43,1.45l.23,147.07c1.91,16.7,10.21,27.5,28.11,26.63,26.01-1.25,25.17-26.94,26.15-46.78,1.68-34.01,1.48-70.15,0-104.16-3.14-71.93-32.77-112.06-61.86-173.74-15.87-33.66-24.01-60.28-26.94-97.82-2.27-29.09-2.99-66.06.54-94.93,3.46-28.35,19.82-44.29,48.41-46.36,6.57-.48,16.43-.42,23.04,0Z"/>
      <path d="M1107.6,8.01v565.2h-34.08c.11-19.27-.13-38.56-.02-57.84,0-1.48.52-2.8.53-4.27.88-167.77-.23-335.56.46-503.33.03-.38.12-.76.45-.99,1.82-1.27,26.34.55,30.53-.24l2.13,1.47Z"/>
      <path d="M665.62,25.29h-55.19v241.82h47.27c.12,0,1.68,1.56,1.68,1.68v17.03h-48.95v270.13h56.39c.12,0,1.68,1.56,1.68,1.68v15.59h-93.58V8.25c0-.15.72-.78.99-.93,4.2-2.31,18.78.45,24.18.71,21.1,1.01,42.71-1.26,63.87-.52.49-.1,1.66.35,1.66.74v17.03Z"/>
      <path d="M387.76,25.29h-55.19v241.82h48.95v18.71h-48.95v286.2c0,.08-1.11,1.2-1.2,1.2h-34.31V8.25c0-.05.67-.72.72-.72h89.26c.05,0,.72.67.72.72v17.03Z"/>
      <path d="M467.9,555.95l56.63.96v16.31h-90.94c-1.1,0-1.63-5.74-1.7-6.93-.65-10.9.34-23.88.48-35.07,1.76-138.84-1.27-277.88-.48-416.95.16-28.68,1.21-57.64,1.49-86.32.04-4.12-3.47-19.82,2.15-20.88l30.73.44c.49-.1,1.66.35,1.66.74v547.69Z"/>
      <path d="M226.99,573.22h-36.23c-.05,0-.72-.67-.72-.72V8.25c0-.05.67-.72.72-.72h35.51c.05,0,.72.67.72.72v564.96Z"/>
    </g>
  </g>
</svg>