<?xml version="1.0" encoding="UTF-8"?>
<svg id="Layer_2" data-name="Layer 2" xmlns="http://www.w3.org/2000/svg" viewBox="0 0 338.4 448.08">
  <g id="Layer_1-2" data-name="Layer 1">
    <g>
      <path d="M0,0h338.4v338.94H0S0,0,0,0ZM259.02,248.51c-.5-4.54-1.56-8.98-2.52-13.43l-24.33-103.28-9.12.87-29.87,115.85c-.77-4.16-1.5-8.34-2.4-12.48-5.45-25.11-12.38-49.94-17.75-75.07-.81-3.81-3.07-12.61-1.87-16.03.56-1.59,1.79-2.13,3.2-2.8,2.76-1.29,6-2.12,8.83-3.28l-.45-5.96c-12.75.08-25.49.65-38.26.49-4.51-.06-9.14-.37-13.65-.5-1.56-.04-3.13.05-4.69,0l.27,5.97c4.57,1.91,10.39,2.85,13.64,6.87,1.75,2.17,2.5,5.02,3.43,7.61l36.62,148.27.36.17,9.46-1,29.4-110.32,26.76,111.27,9.78-.96,40.5-148.64c1.61-4.6,3.11-7.7,7.74-9.77,3-1.34,6.49-2.36,9.59-3.48l-.48-6-13.56.23c-4.2.07-8.25.07-12.45,0l-15-.23c.08,2.06-.22,4.17.29,6.19,4.1,2.25,12.03,2.17,12.16,8.11.1,4.81-2.59,13.48-3.83,18.42-5.75,22.96-12.26,45.76-18.14,68.69-1.14,4.45-2.03,9.16-3.26,13.53-.07.25-.06.73-.4.67ZM33.1,133.25c.19,1.39,0,3.54,0,5.04,0,.11.27.52.41.61l12.53,4.92c1.51,1.04,1.5,2.89,1.71,4.53l-.02,138.17c-.27,1.56-.39,2.99-1.83,3.92l-12.93,4.82.38,5.77c11.76-.05,23.6-.56,35.39-.25,10.28.27,19.05,1.28,29.45-.27,30.23-4.51,45.59-26.48,42.1-56.66-2.01-17.35-13.29-31.15-30.91-33.98l4.24-2.11c18.32-8.84,25.36-31.17,20.05-50.12-8.76-31.22-47.92-25.33-72.62-24.53-7.78.25-15.47,0-23.24-.24-1.64-.05-3.29.06-4.93.01-.12.09.23.29.24.36Z"/>
      <path d="M170.52,370.6v2.88c4.04-4.47,11.79-4.27,15.34.72,3.46-5.33,13.59-5.4,16.36.79.22.5.91,2.52.91,2.92v14.75h-4.08v-13.07c0-.44-.56-2.32-.78-2.81-2.04-4.4-9.67-3.27-11.04,1.78-.1.36-.4,1.97-.4,2.24v11.87h-4.08v-13.79c0-.27-.71-2.1-.91-2.45-1.73-2.96-6.65-2.9-9.05-.8-.78.68-2.03,2.74-2.03,3.73v13.31h-4.32v-22.07h4.08Z"/>
      <path d="M161.41,392.67h-4.08v-3.12c-5.49,6.11-16.17,3.83-18.47-4.19-3.36-11.7,9.32-19.93,18.23-11.88v-11.75h3.96s.36.33.36.36v30.58ZM144.7,387.31c7.39,7.39,17.6-5.22,9.86-11.66s-16.41,5.12-9.86,11.66Z"/>
      <path d="M252.06,392.67h-4.08v-3.12c-5.49,6.11-16.17,3.83-18.47-4.19-3.36-11.7,9.32-19.93,18.23-11.88v-11.75h3.96s.36.33.36.36v30.58ZM235.36,387.31c7.39,7.39,17.6-5.22,9.86-11.66s-16.41,5.12-9.86,11.66Z"/>
      <polygon points="52.88 417.86 59.36 435.13 65.74 417.88 69.53 417.88 75.91 434.89 82.38 417.86 85.86 417.86 77.6 439.94 73.65 439.9 67.51 423.61 61.37 439.9 57.1 439.9 49.17 417.86 52.88 417.86"/>
      <path d="M151.81,437.05v11.03h-4.32v-30.22h4.08v3.12c6.64-7.02,18.42-2.71,18.96,7.07.58,10.66-10.98,16.24-18.72,9ZM158.24,421.28c-8.66.83-8.57,14.13-.48,15.22,11.21,1.52,11.29-16.26.48-15.22Z"/>
      <path d="M69.79,361.73v11.51c4.09-4.31,13.53-4.06,15.95,1.92.19.47.84,2.64.84,3v14.51h-4.08v-12.59c0-.18-.27-1.78-.34-2.05-1.2-4.72-8.45-5.11-11.03-1.65-.31.41-1.33,2.58-1.33,2.98v13.31h-4.32v-30.94h4.32Z"/>
      <path d="M116.56,408.98v11.51c4.09-4.31,13.53-4.06,15.95,1.92.19.47.84,2.64.84,3v14.51h-4.08v-12.59c0-.18-.27-1.78-.34-2.05-1.2-4.72-8.45-5.11-11.03-1.65-.31.41-1.33,2.58-1.33,2.98v13.31h-4.32v-30.94h4.32Z"/>
      <path d="M277.24,383.07h-17.99c1.12,6.73,9.87,8.22,14.27,3.6.51.74,1.59,1.6,2.05,2.27.58.84-1.88,2.35-2.58,2.72-6.82,3.63-16.92.04-17.79-8.26-1.83-17.29,23.52-17.46,22.03-.33ZM273.17,379.96c-1.05-8.15-12.71-8.03-13.91,0h13.91Z"/>
      <path d="M109.36,392.67h-4.08c-.12,0,.09-2.12,0-2.4-4.76,5.52-18.29,2.42-14.84-6.33.78-1.97,3.76-3.99,5.85-3.99h8.75c.86-7.47-8.5-7.14-12.59-3.6l-1.78-3.21c4.64-3.83,15.86-4.5,18.03,2.31.19.59.65,2.44.65,2.94v14.27ZM105.05,383.07h-8.27c-.55,0-1.96,1.05-2.25,1.59-2.58,4.9,6.17,7.14,9.68,2.73,1.22-1.53.81-2.45.84-4.32Z"/>
      <path d="M225.92,392.67h-4.08c-.12,0,.09-2.12,0-2.4-4.76,5.52-18.29,2.42-14.84-6.33.78-1.97,3.76-3.99,5.85-3.99h8.75c.86-7.47-8.5-7.14-12.59-3.6l-1.78-3.21c4.64-3.83,15.86-4.5,18.03,2.31.19.59.65,2.44.65,2.94v14.27ZM221.6,383.07h-8.27c-.55,0-1.96,1.05-2.25,1.59-2.58,4.9,6.17,7.14,9.68,2.73,1.22-1.53.81-2.45.84-4.32Z"/>
      <path d="M191.15,439.92h-4.08c-.12,0,.09-2.12,0-2.4-4.76,5.52-18.29,2.42-14.84-6.33.78-1.97,3.76-3.99,5.85-3.99h8.75c.86-7.47-8.5-7.14-12.59-3.6l-1.78-3.21c4.64-3.83,15.86-4.5,18.03,2.31.19.59.65,2.44.65,2.94v14.27ZM186.83,430.33h-8.27c-.55,0-1.96,1.05-2.25,1.59-2.58,4.9,6.17,7.14,9.68,2.73,1.22-1.53.81-2.45.84-4.32Z"/>
      <path d="M250.57,417.68c16.85-2.02,17.52,21.21,3.77,22.48-16.77,1.55-17.38-20.84-3.77-22.48ZM247.35,434.56c4.02,4.01,11.49,1.79,12.32-3.94,1.57-10.84-11.98-12.4-14.16-4.09-.7,2.67-.18,6.01,1.84,8.02Z"/>
      <path d="M135.27,392.67h-4.08v-12.59c0-.18-.27-1.78-.34-2.05-1.2-4.72-8.45-5.11-11.03-1.65-.31.41-1.33,2.58-1.33,2.98v13.31h-4.32v-22.07h4.08v2.88c4.08-4.59,13.88-4.41,16.25,1.85.17.44.77,2.51.77,2.82v14.51Z"/>
      <path d="M288.28,439.92h-4.08v-12.59c0-.18-.27-1.78-.34-2.05-1.2-4.72-8.45-5.11-11.03-1.65-.31.41-1.33,2.58-1.33,2.98v13.31h-4.32v-22.07h4.08v2.88c4.08-4.59,13.88-4.41,16.25,1.85.17.44.77,2.51.77,2.82v14.51Z"/>
      <path d="M198.9,425.69c2.55,2.67,12.09.54,13.24,6.55,1.32,6.91-6.37,8.34-11.53,7.93-1.33-.1-6.3-1.35-6.96-2.41-.31-.49,1.33-2.61,1.35-3.35,1.58.51,3,1.46,4.74,1.84,2.07.45,7.82.92,8.22-1.96.17-1.22-.19-2.02-1.28-2.58-3.28-1.67-11.04-.55-12.24-5.51-2.28-9.5,11.4-10.23,17-6.68.27.27-.04.42-.12.62-.15.36-1.43,2.71-1.59,2.75-2.46-1.7-8.29-2.66-10.55-.49-.96.92-1.25,2.26-.27,3.28Z"/>
      <path d="M217.61,425.69c2.55,2.67,12.09.54,13.24,6.55,1.32,6.91-6.37,8.34-11.53,7.93-1.33-.1-6.3-1.35-6.96-2.41-.31-.49,1.33-2.61,1.35-3.35,1.58.51,3,1.46,4.74,1.84,2.07.45,7.82.92,8.22-1.96.17-1.22-.19-2.02-1.28-2.58-3.28-1.67-11.04-.55-12.24-5.51-2.28-9.5,11.4-10.23,17-6.68.27.27-.04.42-.12.62-.15.36-1.43,2.71-1.59,2.75-2.46-1.7-8.29-2.66-10.55-.49-.96.92-1.25,2.26-.27,3.28Z"/>
      <path d="M101.93,413.06v4.8h6.24v3.36h-6.24v12.83c0,1.29,2.12,2.91,3.45,2.73l3.14-.93,1.1,2.95c-3.19,2.34-9.38,2-11.17-1.99-.1-.23-.6-1.71-.6-1.8v-13.79h-3.84v-3.36h3.84v-4.8h4.08Z"/>
      <rect x="87.78" y="417.86" width="4.32" height="22.07"/>
      <rect x="233.36" y="417.86" width="4.32" height="22.07"/>
      <path d="M87.86,409.06c2.7-2.7,6.83,1.79,3.77,4.13-2.78,2.12-6.17-1.73-3.77-4.13Z"/>
      <path d="M233.44,409.06c2.7-2.7,6.83,1.79,3.77,4.13-2.78,2.12-6.17-1.73-3.77-4.13Z"/>
      <path d="M74.83,289.76v-72.2c11.92-.35,24.37-.51,31.13,10.96,7.66,12.99,7.08,42.99-2.95,54.77-7.25,8.51-18,8.18-28.18,6.47Z"/>
      <path d="M74.83,207.01v-62.61c1.63-.18,3.28-.58,4.92-.72,16.6-1.35,24.78,6.42,26.5,22.67,1.11,10.53.84,28.65-7.79,36.1-6.63,5.73-15.49,4.67-23.63,4.55Z"/>
    </g>
  </g>
</svg>