<?xml version="1.0" encoding="UTF-8"?>
<svg id="Layer_2" data-name="Layer 2" xmlns="http://www.w3.org/2000/svg" viewBox="0 0 893.21 114.99">
  <g id="Layer_1-2" data-name="Layer 1">
    <g>
      <path d="M893.04,60.11c.26,2.55.18,7.21,0,9.82,0,.05-.21.19-.22.38-.17,1.89-.37,3.74-.74,5.61h-84.94c1.27,9.95,7.49,16.76,17.04,19.52,7.8,2.26,24.09,2.81,30.79-2.32,2.32-1.77,4.6-4.83,4.48-7.86h33.35c-.6,13.52-12.77,22.17-24.71,25.75-29.67,8.88-89.14,5.13-94.02-34.52-4.26-34.55,25.29-48.58,55.04-49.9,21.51-.96,51.57,1.47,61.1,24.26,1.15,2.74,2.54,6.31,2.84,9.26ZM862.33,59.88c-.94-10.93-11.57-15.04-21.22-15.58-12.77-.72-29.04,1.16-33,15.58h54.23Z"/>
      <rect x="486.59" width="33.83" height="112.56"/>
      <rect x="613.76" width="33.83" height="112.56"/>
      <path d="M346.71.48v28.02h25.67v17.48h-25.67v45.15c0,.62.93,2.86,1.44,3.35,1.06,1.03,3.92,1.47,5.39,1.57,4.66.3,9.41-.22,14.05-.25-2.58-6.56-3.09-13.09,1.24-19,8.31-11.33,27.01-13.78,39.95-15.93,12-1.99,24.05-3.69,36.07-5.55.4-2.46-1.75-5.39-3.62-6.8-5.36-4.06-16.67-4.13-23.02-2.9-5.76,1.12-12.65,4.6-13.19,11.15h-32.15c-1.43-13.09,10.07-21.39,21.06-25.33,16.64-5.96,51.01-7.51,67.01.29,8.07,3.93,14.06,9.87,15.12,19.16v53.66c.36,3.17,1.53,6.25,4.07,8.27h-34.07l-.6-3.83c-4.33,2.48-9.32,3.9-14.23,4.72-9.62,1.6-22.12,1.51-31.81.28s-19.78-3.9-27.03-10.74v9.94c-.55.44-1.73.5-2.52.6-8.92,1.1-20.74,1.15-29.76.73-9.59-.45-27.46-3.82-27.46-16.42v-51.85h-19.43c1.01,2.08,2.07,4.17,2.88,6.34.47,1.27,1.03,2.84,1.37,4.14,1.54,6.04.84,13.12-.17,19.21h-84.94c1.27,9.95,7.49,16.76,17.04,19.52,7.8,2.26,24.09,2.81,30.79-2.32,2.32-1.77,4.6-4.82,4.48-7.86h33.35c-.33,9.4-6.7,16.76-14.47,21.36-17.52,10.36-52.75,10.08-71.79,4.03-23.09-7.33-37.38-25.57-31.67-50.54s32.41-32.6,54.46-33.54c19.2-.81,41.64.75,55.55,15.46l2.65,3.47v-17h19.91V.48h34.07ZM267.53,59.88c-.94-10.93-11.57-15.04-21.22-15.58-12.77-.72-29.04,1.16-33,15.58h54.23ZM444.84,73.77c-9.52,1.56-19.13,2.7-28.63,4.35-6.46,1.12-19.87,2.99-15.45,12.71,3.26,7.16,15.42,7.38,22.13,6.89,6.23-.46,12.92-4.02,17.29-8.37.58-.58,4.67-5.27,4.67-5.64v-9.94Z"/>
      <path d="M173.95,112.8h-33.83v-51.14c-.62-6.48.17-12.15-6.9-14.9-7.6-2.96-21.51-1.34-26.93,5.34-1.04,1.28-2.88,4.87-2.88,6.46v54.25h-32.87v-54.98c-.22-11.63-9.16-12.99-18.84-12.33-7.03.47-17.87,5.2-17.87,13.54v53.77H0V28.5h33.83c.06.65-.09,1.41,0,2.04.05.33-.13.41.35.35,3.1-1,6.24-1.89,9.44-2.56,13.16-2.73,34.52-3.19,46.51,3.48,1.51.84,2.83,1.89,4.23,2.88,6.51-3.18,13.59-5.54,20.75-6.83,13.72-2.47,38.75-2.58,49.71,7.23,6.72,6.01,8.7,15.28,9.12,23.94v53.78Z"/>
      <path d="M753.64.48v28.02h25.67v17.48h-25.67v45.15c0,.12.57,1.96.67,2.2.88,1.99,3.49,2.5,5.47,2.68,6.34.58,13.19-.38,19.52-.69v17.84c-.55.44-1.73.5-2.52.6-8.92,1.1-20.74,1.15-29.76.73-9.59-.45-27.46-3.82-27.46-16.42v-52.09h-19.91v-17.48h19.91V.48h34.07Z"/>
      <rect x="663.18" y="28.5" width="34.07" height="84.06"/>
      <rect x="533.38" y="59.4" width="67.18" height="16.05"/>
      <rect x="663.18" y=".48" width="34.07" height="21.32"/>
    </g>
  </g>
</svg>