<?xml version="1.0" encoding="UTF-8"?>
<svg id="Layer_2" data-name="Layer 2" xmlns="http://www.w3.org/2000/svg" viewBox="0 0 1079.76 92.91">
  <g id="Layer_1-2" data-name="Layer 1">
    <g>
      <path d="M604.43,92.91l-32.16-80.43c-.6.38-.62,1.79-.72,2.52-3.16,24.7-5.33,49.49-8.43,74.18-.05.36-.15,1.13-.26,1.42-.37,1-3.14-.07-4.03.17.2-4.71,1.13-9.35,1.68-14.01,2.19-18.58,4.32-37.17,6.48-55.77.69-5.92,1.9-11.71,1.69-17.73-.02-.61-.29-1.17-.25-1.79h9.96l29.99,74.93L638.28,1.49h8.12s8.89,89.51,8.89,89.51h-10.08l-7.67-77.56-31.68,79.47h-1.44Z"/>
      <path d="M1079.76,1.47v89.53c-2.99-.27-6.57.35-9.49.01-.24-.03-.83-.11-.83-.37V1.47h10.32Z"/>
      <path d="M125.2.58c32.09-2.14,55.68,21.39,51.37,53.64-4.13,30.88-34.67,43.55-62.78,35.88C64.71,76.72,75.4,3.9,125.2.58ZM154.19,14.97c-9.16-9.78-24.46-12.56-36.92-7.93-21.24,7.89-27.98,37.24-20.82,56.8,11.13,30.43,51.15,32.99,64.76,2.83,7.12-15.78,5.09-38.77-7.02-51.7Z"/>
      <path d="M775.37,18.61c14.37,19.22,11.91,50.29-8.18,64.69-20.04,14.37-55.05,11.43-69.86-9.22-10.07-14.05-10.13-34.83-2.01-49.79,15.9-29.31,60.14-32.32,80.05-5.68ZM760.79,14c-11.85-11.74-33.26-12.11-45.75-1.16-22.32,19.56-17.87,66.62,13.91,74.22,40.96,9.8,57.03-48.09,31.84-73.06Z"/>
      <path d="M867.27,10.46c8.27,11.23,2.24,26.41-10.19,31.33-.89.35-2.25.42-2.87,1.08,9.65.11,19.99,5.33,22.48,15.27,5.07,20.2-10.58,31.93-29.07,32.85-8.61.43-17.65-.25-26.3-.11l-.23-89.43h28.68c6.8.76,13.36,3.39,17.49,9ZM831.42,42.88c9.44.12,23.54-.67,27.42-11.06,1.59-4.25,1.66-11.52.05-15.74-3.96-10.36-17.96-11.45-27.47-11.02v37.82ZM831.42,86.69c13.46.87,31.89,1.45,34.28-15.71,2-14.34-5.42-24.33-20.01-25.22-4.73-.29-9.78.12-14.51.24-.12.09.24.31.24.36v40.34Z"/>
      <path d="M215.95,1.47c7.84.36,16.09-.47,23.88,0,12.12.72,25.09,8.56,26.03,21.66.87,12.1-4.98,22.26-16.69,25.98-.26.08-.43-.18-.35.36l25.31,41.54h-11.52c-8.19-13.14-15.93-26.6-23.75-39.98-2.9-.62-5.93.11-8.89-.22-1.02-.11-1.03-.45-.35-1.09,1.09-1.03,3.01-.46,4.44-.6,14.11-1.3,25.21-14.12,21.31-28.43-3.21-11.77-16.58-16.44-27.79-15.14-.32.04-1.31.31-1.31.6v84.86h-9.96s-.36-.33-.36-.36V1.47Z"/>
      <path d="M0,1.47c7.84.34,16.07-.46,23.87,0,7.23.43,15.34,3.6,20.28,8.97,6.57,7.14,7.51,18.27,2.25,26.44-6.93,10.76-21.04,13.34-32.97,11.51.25-2.17,2.6-1.28,4.19-1.44,12.43-1.22,22.56-7.16,22.44-20.94-.13-15.06-15.21-22.21-28.68-20.48-.41.05-.73.09-.95.49l-.72,84.98H0V1.47Z"/>
      <path d="M388.35,91L425.57.02c.35.08,1.33-.11,1.51.04.23.2,1.53,4.9,1.83,5.71,10.35,28.24,23.62,55.97,34.95,83.87.11.28.66,1.36.08,1.36h-11.4l-11.9-31.37-35.37.13-13.31,31.24h-3.6ZM438.86,55.57l-16.2-39.98-15.72,39.98h31.91Z"/>
      <path d="M371.2,1.47v3.47s-.33.36-.36.36h-32.15c-.26,0-.34.58-.37.83-.47,4.01-.18,10.55-.24,14.84-.29,23.34.24,46.7,0,70.03h-10.08V5.66s-.33-.36-.36-.36h-30.71c-.76,0,.18-1.74.29-2.1.16-.52.23-1.18.31-1.73h73.66Z"/>
      <path d="M985.22,1.47l.34,85.24.72.24c14.05-.23,28.2.62,42.12-.97.22.3-1.36,5.03-1.8,5.03h-51.35l-.36-89.53h10.32Z"/>
      <polygon points="928.59 1.47 928.47 91 918.64 91 918.52 1.47 928.59 1.47"/>
    </g>
  </g>
</svg>